<svg aria-hidden="true" style="width:0;height:0;position:absolute;overflow:hidden" xmlns="http://www.w3.org/2000/svg"><defs><symbol id="icon-amazon-ar21" viewBox="0 0 60 60"><path fill="#f90" style="fill:var(--color3,#f90)" d="M38.42 21.708c-3.093 2.284-7.591 3.504-11.459 3.504-5.423 0-10.306-2.005-13.999-5.342-.29-.262-.03-.62.318-.416 3.986 2.32 8.915 3.715 14.005 3.715 3.434 0 7.211-.71 10.684-2.185.525-.223.963.343.45.724zm1.289-1.473c-.395-.507-2.613-.239-3.617-.121-.304.037-.35-.228-.077-.418 1.771-1.247 4.677-.887 5.017-.469s-.088 3.333-1.753 4.724c-.256.213-.499.1-.386-.183.373-.933 1.212-3.025.815-3.533z"/><path fill="#221f1f" style="fill:var(--color4,#221f1f)" d="M36.166 10.894c0 .181.14.304.314.304h2.829l-3.257 4.671c-.197.3-.199.636-.199.834v1.228c0 .176.197.381.386.278 1.845-.98 4.062-.884 5.732-.009.205.107.4-.1.4-.276v-1.293c-.021-.174-.075-.351-.288-.471-.947-.534-2.049-.69-3.094-.664l2.811-4.014c.259-.36.406-.588.409-.762V9.683a.303.303 0 0 0-.314-.307h-5.434a.3.3 0 0 0-.299.299v1.22zm-19.805 7.557a.312.312 0 0 0 .318-.307v-4.491c0-.98-.046-2.336 1.14-2.336 1.173 0 1.017 1.391 1.017 2.336l.002 4.491c0 .163.13.295.297.307h1.653a.312.312 0 0 0 .318-.307v-4.491c0-.481-.017-1.195.153-1.623s.587-.694.987-.694c.478 0 .848.161.971.729.078.339.046 1.23.046 1.588v4.496c0 .163.137.295.297.307h1.653a.312.312 0 0 0 .318-.307l.004-5.347c0-.908.107-1.943-.416-2.656-.462-.641-1.219-.926-1.91-.926-.973 0-1.88.499-2.28 1.57-.465-1.07-1.11-1.57-2.143-1.57-1.017 0-1.771.499-2.173 1.57h-.03V9.683a.312.312 0 0 0-.3-.283h-1.539a.31.31 0 0 0-.318.304v8.471a.312.312 0 0 0 .295.281h1.65zm30.517-9.224c2.449 0 3.775 2.103 3.775 4.778 0 2.584-1.465 4.634-3.775 4.634-2.4 0-3.715-2.103-3.715-4.724 0-2.637 1.326-4.693 3.715-4.693zm.014 1.723c-1.216 0-1.293 1.658-1.293 2.691s-.016 3.245 1.279 3.245c1.279 0 1.34-1.783 1.34-2.869 0-.715-.03-1.57-.245-2.247-.186-.59-.555-.82-1.079-.82zm6.931 7.507a.317.317 0 0 0 .323-.307v-4.562c0-.571.03-1.087.262-1.604.189-.408.558-.677.96-.677 1.14 0 1.033 1.356 1.033 2.283v4.601a.312.312 0 0 0 .292.267h1.652a.317.317 0 0 0 .318-.267v-5.333c0-.82 0-1.96-.427-2.637-.465-.732-1.18-.998-1.927-.998-1.14 0-1.788.553-2.25 1.711h-.03V9.638a.317.317 0 0 0-.295-.237h-1.531a.313.313 0 0 0-.318.276l.002 8.474c0 .163.137.295.297.307h1.644zm-21.988-4.054v-.357c-1.195 0-2.456.255-2.456 1.662 0 .713.372 1.196 1.005 1.196.462 0 .88-.286 1.142-.75.325-.577.309-1.107.309-1.75zm1.664 4.024a.34.34 0 0 1-.389.039c-.548-.455-.647-.667-.947-1.1-.906.924-1.548 1.2-2.721 1.2-1.39 0-2.47-.857-2.47-2.572 0-1.34.724-2.252 1.76-2.698.896-.395 2.147-.464 3.104-.573v-.213c0-.393.03-.857-.203-1.196-.199-.304-.585-.429-.926-.429-.629 0-1.189.323-1.326.992-.028.149-.137.295-.288.302l-1.6-.172c-.134-.03-.285-.139-.245-.347.367-1.941 2.123-2.526 3.691-2.526.803 0 1.853.213 2.486.821.803.75.726 1.75.726 2.839v2.572c0 .773.32 1.112.622 1.531.105.149.128.327-.007.439l-1.262 1.101-.002-.005zm-23.303-4.018v-.357c-1.193 0-2.453.255-2.453 1.662 0 .713.369 1.196 1.003 1.196.465 0 .88-.286 1.142-.75.325-.577.309-1.107.309-1.75zm1.664 4.023a.34.34 0 0 1-.389.039c-.548-.455-.64-.667-.947-1.1-.906.924-1.547 1.2-2.721 1.2-1.388.001-2.469-.856-2.469-2.571 0-1.34.726-2.252 1.76-2.698.896-.395 2.147-.464 3.104-.573v-.213c0-.393.03-.857-.199-1.196-.203-.304-.587-.429-.926-.429-.629 0-1.191.323-1.333.992-.028.149-.137.295-.285.302l-1.602-.172c-.134-.03-.283-.139-.245-.347.369-1.941 2.123-2.526 3.691-2.526.803 0 1.853.213 2.486.821.803.75.726 1.75.726 2.839v2.572c0 .773.32 1.112.622 1.531.107.149.13.327-.005.439l-1.259 1.094-.005-.005z"/></symbol><symbol id="icon-14008711" viewBox="0 0 32 32"><path d="M12.044 7.604c-4.27 2.14-4.131 2.056-4.349 2.535-.279.6-.363 1.749-.186 2.512.093.419.302.893.446 1.028.056.046 1.917 1 4.131 2.112l4.033 2.023.177.349c.246.488.33.972.298 1.744-.019.484-.046.679-.144.986-.065.204-.158.423-.204.479l-.084.102-4.01-2.005c-2.205-1.102-4.038-2.005-4.075-2.005-.098 0-.181.125-.135.204.019.037 1.865.982 4.103 2.102l4.065 2.033 4.042-2.019c3.935-1.963 4.047-2.023 4.177-2.223.33-.498.488-1.223.451-2.075-.037-.795-.246-1.484-.544-1.768l-.125-.121-8.01 4.005-.121-.2c-.512-.874-.512-2.53-.005-3.396l.125-.223 4.047-2.019c2.223-1.112 4.042-2.051 4.042-2.084 0-.056-7.996-4.079-8.108-4.075-.028 0-1.847.898-4.038 1.996zm-3.052 3.814c.493.265.624.367.712.586.088.214.084.358-.023.488-.088.112-.088.112.005.265.112.181.135.567.042.679-.107.125-.312.084-.819-.167l-.488-.246v-.172c0-.13.019-.167.065-.149.093.037.13-1.093.042-1.172-.075-.06-.079-.344-.009-.344.028 0 .242.102.474.233zm1.731.833c.261.116.484.354.619.651.093.2.116.33.116.628.005.372-.037.516-.191.688-.112.13-.419.107-.665-.046-.27-.177-.34-.261-.488-.586-.098-.219-.125-.344-.125-.633-.005-.4.088-.628.298-.73.149-.079.219-.075.437.028zm1.8.93c.419.265.595.628.595 1.232 0 .409-.084.619-.284.726-.27.149-.865-.251-1.065-.707-.204-.465-.135-1.186.125-1.335.154-.088.405-.056.628.084zm1.526.898c0 .121-.051.223-.098.195-.023-.014-.042.07-.042.186s.009.214.019.214c.014 0 .098-.046.195-.102.149-.088.158-.107.093-.154-.065-.051-.112-.349-.051-.349.014 0 .172.075.349.163.312.158.325.172.325.33 0 .125-.019.163-.065.144-.056-.023-.354.121-.354.172 0 .098.386 1.037.442 1.079.075.056.093.191.033.284-.028.042-.14.005-.419-.14-.363-.186-.382-.204-.382-.354 0-.116.014-.149.07-.125.084.033.084.046-.005-.233-.093-.274-.121-.312-.219-.27-.088.033-.116.344-.033.344.028 0 .046.084.046.186v.186l-.325-.163c-.312-.158-.325-.172-.325-.325 0-.112.023-.163.065-.163.093 0 .13-1.056.042-1.168-.06-.075-.084-.284-.037-.33.051-.051.674.312.674.391zm9.736 1.237c.274.302.033.935-.451 1.195-.154.084-.167.107-.167.312 0 .163.014.214.061.195.042-.014.061.028.056.154 0 .172-.009.181-.335.354l-.34.177v-.181c0-.098.019-.195.042-.223.023-.023.051-.321.065-.661.023-.526.014-.619-.042-.595-.051.019-.065-.019-.065-.158 0-.181.005-.186.34-.354.34-.172.619-.288.712-.293.028-.005.084.033.125.079zm-1.633.759c.149.079.223.33.223.735 0 .595-.223 1.084-.609 1.34-.209.14-.563.195-.674.107-.149-.125-.209-.325-.209-.693 0-.646.284-1.177.744-1.414.274-.135.382-.154.526-.075zm-1.549.972c-.033.023-.061.256-.079.674-.019.586-.014.642.056.614.061-.023.075 0 .075.144 0 .172-.009.177-.349.349l-.349.172v-.186c0-.125.023-.2.07-.214.079-.033.102-.437.023-.437-.023 0-.116.037-.209.079-.154.075-.163.093-.163.302 0 .177.014.214.07.195.056-.023.07.009.07.154 0 .177-.005.181-.349.354l-.349.172v-.177c0-.098.019-.195.042-.223.023-.023.051-.316.061-.646.009-.465 0-.6-.042-.595-.042.009-.061-.046-.061-.172 0-.181.005-.186.325-.349.177-.088.335-.163.349-.163s.023.084.023.181c0 .116-.023.191-.07.209s-.07.093-.07.237c0 .116.009.209.023.209s.112-.042.209-.093c.177-.088.186-.107.186-.307 0-.172-.014-.209-.07-.186-.056.019-.07-.014-.07-.158 0-.181 0-.186.34-.34l.335-.154.014.158c.009.093-.009.177-.042.195zm-1.763.874v.363l-.172.084c-.116.056-.181.065-.191.033-.037-.107-.154-.186-.233-.158-.102.037-.195.154-.195.251 0 .065.061.079.33.098.279.014.344.037.419.125.191.233.056.703-.284.995-.223.186-.414.251-.554.172-.084-.042-.098-.033-.125.07-.028.112-.223.256-.344.256-.028 0-.046-.135-.046-.34v-.34l.204-.098c.2-.098.204-.098.228-.009.033.116.177.112.33-.009.214-.167.163-.228-.2-.228-.228 0-.344-.023-.395-.07-.27-.27-.028-.972.409-1.182.237-.116.279-.121.372-.023.07.065.075.061.075-.046 0-.088.042-.14.177-.209.093-.051.177-.093.186-.098.005 0 .009.163.009.363z"/><path d="M10.713 4.814C5.024 7.665 5.209 7.553 4.918 8.192c-.372.8-.484 2.331-.248 3.347.124.558.403 1.19.595 1.37.074.062 2.554 1.333 5.504 2.813l5.374 2.696.235.465c.328.651.44 1.296.397 2.324-.025.644-.062.905-.192 1.314-.086.272-.211.564-.272.638l-.112.137-5.342-2.671c-2.938-1.468-5.379-2.671-5.429-2.671-.13 0-.242.167-.179.272.025.049 2.485 1.308 5.467 2.801l5.416 2.708 5.386-2.69c5.243-2.615 5.392-2.696 5.565-2.962.44-.663.651-1.63.601-2.764-.049-1.06-.328-1.977-.725-2.355l-.167-.161-10.672 5.336-.161-.267c-.682-1.165-.682-3.371-.007-4.525l.167-.298 5.392-2.69c2.962-1.482 5.386-2.733 5.386-2.776 0-.074-10.653-5.435-10.802-5.429-.037 0-2.461 1.196-5.379 2.659zM6.648 9.895c.657.353.831.489.949.781.118.285.112.477-.031.651-.118.149-.118.149.007.353.149.242.179.756.056.905-.142.167-.415.112-1.091-.223l-.651-.328v-.23c0-.174.025-.223.086-.198.124.049.174-1.456.056-1.561-.1-.081-.105-.459-.012-.459.037 0 .322.137.632.31zm2.306 1.11c.347.155.644.471.824.868.124.267.155.44.155.837.007.496-.049.688-.254.917-.149.174-.558.142-.886-.062-.36-.235-.452-.347-.651-.781-.13-.291-.167-.459-.167-.843-.007-.533.118-.837.397-.973.198-.105.291-.1.582.037zm2.398 1.24c.558.353.793.837.793 1.642 0 .545-.112.824-.378.967-.36.198-1.153-.335-1.419-.942-.272-.619-.179-1.58.167-1.779.205-.118.539-.074.837.112zm2.032 1.196c0 .161-.068.298-.13.26-.031-.019-.056.093-.056.248s.012.285.025.285c.019 0 .13-.062.26-.137.198-.118.211-.142.124-.205-.086-.068-.149-.465-.068-.465.019 0 .23.1.465.217.415.211.434.23.434.44 0 .167-.025.217-.086.193-.074-.031-.471.161-.471.23 0 .13.514 1.382.589 1.438.1.074.124.254.044.378-.037.056-.186.007-.558-.186-.484-.248-.508-.272-.508-.471 0-.155.019-.198.093-.167.112.044.112.062-.007-.31-.124-.365-.161-.415-.291-.36-.118.044-.155.459-.044.459.037 0 .062.112.062.248v.248l-.434-.217c-.415-.211-.434-.23-.434-.434 0-.149.031-.217.086-.217.124 0 .174-1.407.056-1.556-.081-.1-.112-.378-.049-.44.068-.068.898.415.898.521zm12.972 1.648c.365.403.044 1.246-.601 1.593-.205.112-.223.142-.223.415 0 .217.019.285.081.26.056-.019.081.037.074.205 0 .23-.012.242-.446.471l-.452.235v-.242c0-.13.025-.26.056-.298.031-.031.068-.428.086-.88.031-.7.019-.824-.056-.793-.068.025-.086-.025-.086-.211 0-.242.007-.248.452-.471.452-.23.824-.384.949-.391.037-.007.112.044.167.105zM24.181 16.1c.198.105.298.44.298.979 0 .793-.298 1.444-.812 1.785-.279.186-.75.26-.898.142-.198-.167-.279-.434-.279-.924 0-.861.378-1.568.991-1.884.365-.179.508-.205.7-.1zm-2.064 1.294c-.044.031-.081.341-.105.898-.025.781-.019.856.074.818.081-.031.1 0 .1.192 0 .23-.012.235-.465.465l-.465.23v-.248c0-.167.031-.267.093-.285.105-.044.137-.582.031-.582-.031 0-.155.049-.279.105-.205.1-.217.124-.217.403 0 .235.019.285.093.26.074-.031.093.012.093.205 0 .235-.007.242-.465.471l-.465.23v-.235c0-.13.025-.26.056-.298.031-.031.068-.421.081-.861.012-.619 0-.8-.056-.793-.056.012-.081-.062-.081-.23 0-.242.007-.248.434-.465.235-.118.446-.217.465-.217s.031.112.031.242c0 .155-.031.254-.093.279s-.093.124-.093.316c0 .155.012.279.031.279s.149-.056.279-.124c.235-.118.248-.142.248-.409 0-.23-.019-.279-.093-.248-.074.025-.093-.019-.093-.211 0-.242 0-.248.452-.452l.446-.205.019.211c.012.124-.012.235-.056.26zm-2.349 1.165v.484l-.23.112c-.155.074-.242.086-.254.044-.049-.142-.205-.248-.31-.211-.137.049-.26.205-.26.335 0 .086.081.105.44.13.372.019.459.049.558.167.254.31.074.936-.378 1.326-.298.248-.551.335-.738.23-.112-.056-.13-.044-.167.093-.037.149-.298.341-.459.341-.037 0-.062-.179-.062-.452v-.452l.272-.13c.267-.13.272-.13.304-.012.044.155.235.149.44-.012.285-.223.217-.304-.267-.304-.304 0-.459-.031-.526-.093-.36-.36-.037-1.296.545-1.575.316-.155.372-.161.496-.031.093.086.1.081.1-.062 0-.118.056-.186.235-.279a6.84 6.84 0 0 1 .248-.13c.007 0 .012.217.012.484z"/><path d="M6.704 10.682c.019.248.037.298.155.316.272.037.235-.397-.049-.545-.118-.068-.124-.056-.105.23zM6.642 11.643c.019.291.037.335.186.384.211.074.254.031.248-.223a.417.417 0 0 0-.179-.341c-.093-.081-.198-.142-.223-.142s-.044.149-.031.322zM8.737 11.693c-.086.155-.093.905-.012 1.116a.855.855 0 0 0 .167.248c.093.081.118.074.223-.056.155-.186.167-.973.025-1.245-.112-.217-.304-.242-.403-.062zM10.955 12.82c-.037.081-.074.335-.074.577 0 .521.137.831.372.837.242 0 .285-1.171.062-1.419-.155-.167-.26-.167-.36.007zM25.631 15.678c-.081.062-.105.149-.086.409l.019.328.167-.13c.192-.155.279-.465.174-.595-.093-.112-.13-.118-.272-.012zM23.399 16.824c-.142.167-.223.477-.223.893 0 .446.081.67.242.67.192 0 .335-.341.36-.868.031-.638-.137-.954-.378-.694zM21.429 11.11l-5.256 2.628v.217c0 .118.012.217.031.217.037 0 10.455-5.2 10.492-5.237.012-.012.012-.118 0-.235l-.019-.217-5.249 2.628zM21.429 12.164l-5.256 2.628v.217c0 .118.031.217.062.217.037 0 2.405-1.171 5.268-2.603l5.206-2.603v-.248c0-.137-.007-.248-.012-.242-.012 0-2.38 1.184-5.268 2.634zM21.392 13.261l-5.225 2.615.019.205c.012.112.037.198.068.198.025 0 2.386-1.171 5.249-2.603l5.206-2.603v-.217c0-.118-.019-.217-.044-.211-.031 0-2.399 1.177-5.274 2.615zM21.41 14.314l-5.206 2.615-.019.23c-.012.13-.007.235.012.235s2.392-1.177 5.274-2.615l5.237-2.622v-.23c0-.13-.019-.235-.044-.23-.031 0-2.392 1.177-5.256 2.615zM5.576 14.091v.235l3.762 1.921 5.181 2.64 1.413.725-.019-.248c-.025-.285.198-.155-2.745-1.654a2332.62 2332.62 0 0 0-4.685-2.399c-1.556-.8-2.845-1.45-2.869-1.45-.019 0-.037.105-.037.23zM5.576 15.144v.235l1.351.694c2.864 1.468 8.366 4.288 8.677 4.444l.328.167-.037-.508-2.479-1.27c-1.363-.7-3.384-1.735-4.493-2.299S6.63 15.43 6.283 15.25c-.347-.186-.644-.335-.67-.335-.019 0-.037.105-.037.23zM5.576 16.205v.23l1.072.539c.582.298 1.791.911 2.678 1.37.886.452 2.448 1.252 3.471 1.773 1.023.526 2.145 1.103 2.498 1.289l.638.335-.037-.508-.619-.328c-1.128-.595-9.625-4.933-9.662-4.933-.019 0-.037.105-.037.235zM5.576 17.14v.242l1.599.824c.874.446 2.15 1.103 2.832 1.45 3.899 2.002 5.863 3.006 5.888 3.006.019 0 .031-.105.031-.235v-.23l-1.351-.688c-.738-.384-3.018-1.549-5.063-2.597s-3.768-1.927-3.824-1.959c-.1-.056-.112-.031-.112.186zM15.027 30.093l-.186.044.248.044c.316.056 1.933.044 2.138-.012.142-.044.13-.049-.093-.086-.31-.056-1.859-.044-2.107.012z"/></symbol><symbol id="icon-x-close" viewBox="0 0 32 32"><path fill="#fff" d="m8 8 14 14M8 22 22 8" stroke="#000" stroke-width="2"/></symbol><symbol id="icon-apple-ibooks" viewBox="0 0 32 32"><path style="fill:var(--color1,orange)" d="M20.352 1.6c2.88 0 4.352 0 5.888.48a6.054 6.054 0 0 1 3.648 3.648c.512 1.568.512 3.008.512 5.92v8.704c0 2.88 0 4.352-.48 5.888a6.054 6.054 0 0 1-3.648 3.648c-1.568.512-3.008.512-5.92.512h-8.704c-2.88 0-4.352 0-5.888-.48a6.325 6.325 0 0 1-3.68-3.68c-.48-1.536-.48-2.976-.48-5.888v-8.704c0-2.88 0-4.352.48-5.888a6.325 6.325 0 0 1 3.68-3.68c1.536-.48 2.976-.48 5.888-.48h8.704z"/><path fill="#fff" style="fill:var(--color2,#fff)" d="M6.4 10.496s.928-2.4 4.672-2.4a4.833 4.833 0 0 1 4.704 3.136v13.44s-1.184-3.584-4.672-3.584c-2.528 0-4.32 1.632-4.32 1.632-.192.16-.384.064-.384-.192V10.496zm19.2 0v12c0 .256-.16.352-.384.192 0 0-1.792-1.632-4.32-1.632-3.456 0-4.64 3.584-4.64 3.584V11.2s.96-3.136 4.704-3.136c3.712 0 4.64 2.432 4.64 2.432z"/></symbol><symbol id="icon-close-black" viewBox="0 0 32 32"><path d="m17.253 15.751 7.369-7.317a.875.875 0 0 0-.047-1.198.893.893 0 0 0-1.206-.046L16 14.507 8.631 7.181a.896.896 0 0 0-1.262 0 .885.885 0 0 0 0 1.254l7.378 7.317-7.378 7.317a.873.873 0 0 0-.249.992.883.883 0 0 0 .503.5.896.896 0 0 0 1-.247l7.378-7.317 7.369 7.317a.894.894 0 0 0 1.206-.046.875.875 0 0 0 .047-1.198l-7.369-7.317z"/></symbol><symbol id="icon-dump-1" viewBox="0 0 32 32"><path fill="#4f2ee8" style="fill:var(--color1,#4f2ee8)" d="M32 16c0 8.837-7.163 16-16 16S0 24.837 0 16 7.163 0 16 0s16 7.163 16 16z"/><path fill="none" stroke="#fff" style="stroke:var(--color2,#fff)" stroke-linejoin="round" stroke-linecap="round" stroke-width="1.143" d="M13.714 9.143h4.571m-9.142 2.286h13.714m-1.524 0-.534 8.015c-.08 1.202-.12 1.804-.38 2.26a2.29 2.29 0 0 1-.989.925c-.472.229-1.075.229-2.28.229h-2.3c-1.205 0-1.808 0-2.28-.229a2.278 2.278 0 0 1-.989-.925c-.26-.456-.3-1.057-.38-2.26l-.534-8.015m3.809 3.428v3.809m3.048-3.809v3.809"/></symbol></defs></svg>