<svg width="64" height="64" fill="none" xmlns="http://www.w3.org/2000/svg"><circle cx="32" cy="32" r="32" fill="#4F2EE8" fill-opacity=".3"/><circle cx="32" cy="32" r="27" fill="#4F2EE8"/><path d="m23.375 34.7 8.4-8.425c.1-.1.208-.17.325-.212a1.1 1.1 0 0 1 .375-.063c.133 0 .258.021.375.063a.871.871 0 0 1 .325.212L41.6 34.7c.233.233.35.525.35.875s-.125.65-.375.9a1.2 1.2 0 0 1-.875.375 1.2 1.2 0 0 1-.875-.375l-7.35-7.35-7.35 7.35c-.233.233-.52.35-.862.35-.342 0-.638-.125-.888-.375a1.2 1.2 0 0 1-.375-.875 1.2 1.2 0 0 1 .375-.875Z" fill="#fff"/></svg>