<svg aria-hidden="true" style="position: absolute; width: 0; height: 0; overflow: hidden;" version="1.1" xmlns="http://www.w3.org/2000/svg" xmlns:xlink="http://www.w3.org/1999/xlink">
<defs>
<symbol id="icon-amazon-ar21" viewBox="0 0 60 60">
<path fill="#f90" style="fill: var(--color3, #f90)" d="M38.42 21.708c-3.093 2.284-7.591 3.504-11.459 3.504-5.423 0-10.306-2.005-13.999-5.342-0.29-0.262-0.030-0.62 0.318-0.416 3.986 2.32 8.915 3.715 14.005 3.715 3.434 0 7.211-0.71 10.684-2.185 0.525-0.223 0.963 0.343 0.45 0.724zM39.709 20.235c-0.395-0.507-2.613-0.239-3.617-0.121-0.304 0.037-0.35-0.228-0.077-0.418 1.771-1.247 4.677-0.887 5.017-0.469s-0.088 3.333-1.753 4.724c-0.256 0.213-0.499 0.1-0.386-0.183 0.373-0.933 1.212-3.025 0.815-3.533z"></path>
<path fill="#221f1f" style="fill: var(--color4, #221f1f)" d="M36.166 10.894c0 0.181 0.14 0.304 0.314 0.304h2.829l-3.257 4.671c-0.197 0.3-0.199 0.636-0.199 0.834v1.228c0 0.176 0.197 0.381 0.386 0.278 1.845-0.98 4.062-0.884 5.732-0.009 0.205 0.107 0.4-0.1 0.4-0.276v-1.293c-0.021-0.174-0.075-0.351-0.288-0.471-0.947-0.534-2.049-0.69-3.094-0.664l2.811-4.014c0.259-0.36 0.406-0.588 0.409-0.762v-1.037c0-0.181-0.14-0.307-0.314-0.307h-5.425c-0.003-0-0.006-0-0.009-0-0.165 0-0.299 0.134-0.299 0.299 0 0.003 0 0.006 0 0.008v1.212zM16.361 18.451c0.176 0 0.318-0.137 0.318-0.307v-4.491c0-0.98-0.046-2.336 1.14-2.336 1.173 0 1.017 1.391 1.017 2.336l0.002 4.491c0 0.163 0.13 0.295 0.297 0.307h1.653c0.176 0 0.318-0.137 0.318-0.307v-4.491c0-0.481-0.017-1.195 0.153-1.623s0.587-0.694 0.987-0.694c0.478 0 0.848 0.161 0.971 0.729 0.078 0.339 0.046 1.23 0.046 1.588v4.496c0 0.163 0.137 0.295 0.297 0.307h1.653c0.176 0 0.318-0.137 0.318-0.307l0.004-5.347c0-0.908 0.107-1.943-0.416-2.656-0.462-0.641-1.219-0.926-1.91-0.926-0.973 0-1.88 0.499-2.28 1.57-0.465-1.070-1.11-1.57-2.143-1.57-1.017 0-1.771 0.499-2.173 1.57h-0.030v-1.107c-0.012-0.153-0.14-0.276-0.3-0.283h-1.539c-0.176 0-0.318 0.134-0.318 0.304v8.471c0.012 0.151 0.137 0.269 0.295 0.281h1.65zM46.878 9.227c2.449 0 3.775 2.103 3.775 4.778 0 2.584-1.465 4.634-3.775 4.634-2.4 0-3.715-2.103-3.715-4.724 0-2.637 1.326-4.693 3.715-4.693zM46.892 10.95c-1.216 0-1.293 1.658-1.293 2.691s-0.016 3.245 1.279 3.245c1.279 0 1.34-1.783 1.34-2.869 0-0.715-0.030-1.57-0.245-2.247-0.186-0.59-0.555-0.82-1.079-0.82zM53.823 18.457c0.177 0 0.321-0.137 0.323-0.307v-4.562c0-0.571 0.030-1.087 0.262-1.604 0.189-0.408 0.558-0.677 0.96-0.677 1.14 0 1.033 1.356 1.033 2.283v4.601c0.016 0.144 0.141 0.255 0.292 0.267h1.652c0.162 0 0.299-0.117 0.318-0.267v-5.333c0-0.82 0-1.96-0.427-2.637-0.465-0.732-1.18-0.998-1.927-0.998-1.14 0-1.788 0.553-2.25 1.711h-0.030v-1.296c-0.033-0.132-0.151-0.23-0.295-0.237h-1.531c-0.167 0-0.304 0.121-0.318 0.276l0.002 8.474c0 0.163 0.137 0.295 0.297 0.307h1.644zM31.835 14.403v-0.357c-1.195 0-2.456 0.255-2.456 1.662 0 0.713 0.372 1.196 1.005 1.196 0.462 0 0.88-0.286 1.142-0.75 0.325-0.577 0.309-1.107 0.309-1.75zM33.499 18.427c-0.109 0.098-0.267 0.105-0.389 0.039-0.548-0.455-0.647-0.667-0.947-1.1-0.906 0.924-1.548 1.2-2.721 1.2-1.39 0-2.47-0.857-2.47-2.572 0-1.34 0.724-2.252 1.76-2.698 0.896-0.395 2.147-0.464 3.104-0.573v-0.213c0-0.393 0.030-0.857-0.203-1.196-0.199-0.304-0.585-0.429-0.926-0.429-0.629 0-1.189 0.323-1.326 0.992-0.028 0.149-0.137 0.295-0.288 0.302l-1.6-0.172c-0.134-0.030-0.285-0.139-0.245-0.347 0.367-1.941 2.123-2.526 3.691-2.526 0.803 0 1.853 0.213 2.486 0.821 0.803 0.75 0.726 1.75 0.726 2.839v2.572c0 0.773 0.32 1.112 0.622 1.531 0.105 0.149 0.128 0.327-0.007 0.439l-1.262 1.101-0.002-0.005zM10.196 14.409v-0.357c-1.193 0-2.453 0.255-2.453 1.662 0 0.713 0.369 1.196 1.003 1.196 0.465 0 0.88-0.286 1.142-0.75 0.325-0.577 0.309-1.107 0.309-1.75zM11.86 18.432c-0.109 0.098-0.267 0.105-0.389 0.039-0.548-0.455-0.64-0.667-0.947-1.1-0.906 0.924-1.547 1.2-2.721 1.2-1.388 0.001-2.469-0.856-2.469-2.571 0-1.34 0.726-2.252 1.76-2.698 0.896-0.395 2.147-0.464 3.104-0.573v-0.213c0-0.393 0.030-0.857-0.199-1.196-0.203-0.304-0.587-0.429-0.926-0.429-0.629 0-1.191 0.323-1.333 0.992-0.028 0.149-0.137 0.295-0.285 0.302l-1.602-0.172c-0.134-0.030-0.283-0.139-0.245-0.347 0.369-1.941 2.123-2.526 3.691-2.526 0.803 0 1.853 0.213 2.486 0.821 0.803 0.75 0.726 1.75 0.726 2.839v2.572c0 0.773 0.32 1.112 0.622 1.531 0.107 0.149 0.13 0.327-0.005 0.439l-1.259 1.094-0.005-0.005z"></path>
</symbol>
<symbol id="icon-14008711" viewBox="0 0 32 32">
<path d="M12.044 7.604c-4.27 2.14-4.131 2.056-4.349 2.535-0.279 0.6-0.363 1.749-0.186 2.512 0.093 0.419 0.302 0.893 0.446 1.028 0.056 0.046 1.917 1 4.131 2.112l4.033 2.023 0.177 0.349c0.246 0.488 0.33 0.972 0.298 1.744-0.019 0.484-0.046 0.679-0.144 0.986-0.065 0.204-0.158 0.423-0.204 0.479l-0.084 0.102-4.010-2.005c-2.205-1.102-4.038-2.005-4.075-2.005-0.098 0-0.181 0.125-0.135 0.204 0.019 0.037 1.865 0.982 4.103 2.102l4.065 2.033 4.042-2.019c3.935-1.963 4.047-2.023 4.177-2.223 0.33-0.498 0.488-1.223 0.451-2.075-0.037-0.795-0.246-1.484-0.544-1.768l-0.125-0.121-8.010 4.005-0.121-0.2c-0.512-0.874-0.512-2.53-0.005-3.396l0.125-0.223 4.047-2.019c2.223-1.112 4.042-2.051 4.042-2.084 0-0.056-7.996-4.079-8.108-4.075-0.028 0-1.847 0.898-4.038 1.996zM8.992 11.418c0.493 0.265 0.624 0.367 0.712 0.586 0.088 0.214 0.084 0.358-0.023 0.488-0.088 0.112-0.088 0.112 0.005 0.265 0.112 0.181 0.135 0.567 0.042 0.679-0.107 0.125-0.312 0.084-0.819-0.167l-0.488-0.246v-0.172c0-0.13 0.019-0.167 0.065-0.149 0.093 0.037 0.13-1.093 0.042-1.172-0.075-0.060-0.079-0.344-0.009-0.344 0.028 0 0.242 0.102 0.474 0.233zM10.723 12.251c0.261 0.116 0.484 0.354 0.619 0.651 0.093 0.2 0.116 0.33 0.116 0.628 0.005 0.372-0.037 0.516-0.191 0.688-0.112 0.13-0.419 0.107-0.665-0.046-0.27-0.177-0.34-0.261-0.488-0.586-0.098-0.219-0.125-0.344-0.125-0.633-0.005-0.4 0.088-0.628 0.298-0.73 0.149-0.079 0.219-0.075 0.437 0.028zM12.523 13.181c0.419 0.265 0.595 0.628 0.595 1.232 0 0.409-0.084 0.619-0.284 0.726-0.27 0.149-0.865-0.251-1.065-0.707-0.204-0.465-0.135-1.186 0.125-1.335 0.154-0.088 0.405-0.056 0.628 0.084zM14.049 14.079c0 0.121-0.051 0.223-0.098 0.195-0.023-0.014-0.042 0.070-0.042 0.186s0.009 0.214 0.019 0.214c0.014 0 0.098-0.046 0.195-0.102 0.149-0.088 0.158-0.107 0.093-0.154-0.065-0.051-0.112-0.349-0.051-0.349 0.014 0 0.172 0.075 0.349 0.163 0.312 0.158 0.325 0.172 0.325 0.33 0 0.125-0.019 0.163-0.065 0.144-0.056-0.023-0.354 0.121-0.354 0.172 0 0.098 0.386 1.037 0.442 1.079 0.075 0.056 0.093 0.191 0.033 0.284-0.028 0.042-0.14 0.005-0.419-0.14-0.363-0.186-0.382-0.204-0.382-0.354 0-0.116 0.014-0.149 0.070-0.125 0.084 0.033 0.084 0.046-0.005-0.233-0.093-0.274-0.121-0.312-0.219-0.27-0.088 0.033-0.116 0.344-0.033 0.344 0.028 0 0.046 0.084 0.046 0.186v0.186l-0.325-0.163c-0.312-0.158-0.325-0.172-0.325-0.325 0-0.112 0.023-0.163 0.065-0.163 0.093 0 0.13-1.056 0.042-1.168-0.060-0.075-0.084-0.284-0.037-0.33 0.051-0.051 0.674 0.312 0.674 0.391zM23.785 15.316c0.274 0.302 0.033 0.935-0.451 1.195-0.154 0.084-0.167 0.107-0.167 0.312 0 0.163 0.014 0.214 0.061 0.195 0.042-0.014 0.061 0.028 0.056 0.154 0 0.172-0.009 0.181-0.335 0.354l-0.34 0.177v-0.181c0-0.098 0.019-0.195 0.042-0.223 0.023-0.023 0.051-0.321 0.065-0.661 0.023-0.526 0.014-0.619-0.042-0.595-0.051 0.019-0.065-0.019-0.065-0.158 0-0.181 0.005-0.186 0.34-0.354 0.34-0.172 0.619-0.288 0.712-0.293 0.028-0.005 0.084 0.033 0.125 0.079zM22.152 16.075c0.149 0.079 0.223 0.33 0.223 0.735 0 0.595-0.223 1.084-0.609 1.34-0.209 0.14-0.563 0.195-0.674 0.107-0.149-0.125-0.209-0.325-0.209-0.693 0-0.646 0.284-1.177 0.744-1.414 0.274-0.135 0.382-0.154 0.526-0.075zM20.603 17.047c-0.033 0.023-0.061 0.256-0.079 0.674-0.019 0.586-0.014 0.642 0.056 0.614 0.061-0.023 0.075 0 0.075 0.144 0 0.172-0.009 0.177-0.349 0.349l-0.349 0.172v-0.186c0-0.125 0.023-0.2 0.070-0.214 0.079-0.033 0.102-0.437 0.023-0.437-0.023 0-0.116 0.037-0.209 0.079-0.154 0.075-0.163 0.093-0.163 0.302 0 0.177 0.014 0.214 0.070 0.195 0.056-0.023 0.070 0.009 0.070 0.154 0 0.177-0.005 0.181-0.349 0.354l-0.349 0.172v-0.177c0-0.098 0.019-0.195 0.042-0.223 0.023-0.023 0.051-0.316 0.061-0.646 0.009-0.465 0-0.6-0.042-0.595-0.042 0.009-0.061-0.046-0.061-0.172 0-0.181 0.005-0.186 0.325-0.349 0.177-0.088 0.335-0.163 0.349-0.163s0.023 0.084 0.023 0.181c0 0.116-0.023 0.191-0.070 0.209s-0.070 0.093-0.070 0.237c0 0.116 0.009 0.209 0.023 0.209s0.112-0.042 0.209-0.093c0.177-0.088 0.186-0.107 0.186-0.307 0-0.172-0.014-0.209-0.070-0.186-0.056 0.019-0.070-0.014-0.070-0.158 0-0.181 0-0.186 0.34-0.34l0.335-0.154 0.014 0.158c0.009 0.093-0.009 0.177-0.042 0.195zM18.84 17.921v0.363l-0.172 0.084c-0.116 0.056-0.181 0.065-0.191 0.033-0.037-0.107-0.154-0.186-0.233-0.158-0.102 0.037-0.195 0.154-0.195 0.251 0 0.065 0.061 0.079 0.33 0.098 0.279 0.014 0.344 0.037 0.419 0.125 0.191 0.233 0.056 0.703-0.284 0.995-0.223 0.186-0.414 0.251-0.554 0.172-0.084-0.042-0.098-0.033-0.125 0.070-0.028 0.112-0.223 0.256-0.344 0.256-0.028 0-0.046-0.135-0.046-0.34v-0.34l0.204-0.098c0.2-0.098 0.204-0.098 0.228-0.009 0.033 0.116 0.177 0.112 0.33-0.009 0.214-0.167 0.163-0.228-0.2-0.228-0.228 0-0.344-0.023-0.395-0.070-0.27-0.27-0.028-0.972 0.409-1.182 0.237-0.116 0.279-0.121 0.372-0.023 0.070 0.065 0.075 0.061 0.075-0.046 0-0.088 0.042-0.14 0.177-0.209 0.093-0.051 0.177-0.093 0.186-0.098 0.005 0 0.009 0.163 0.009 0.363z"></path>
<path d="M10.713 4.814c-5.689 2.851-5.504 2.739-5.795 3.378-0.372 0.8-0.484 2.331-0.248 3.347 0.124 0.558 0.403 1.19 0.595 1.37 0.074 0.062 2.554 1.333 5.504 2.813l5.374 2.696 0.235 0.465c0.328 0.651 0.44 1.296 0.397 2.324-0.025 0.644-0.062 0.905-0.192 1.314-0.086 0.272-0.211 0.564-0.272 0.638l-0.112 0.137-5.342-2.671c-2.938-1.468-5.379-2.671-5.429-2.671-0.13 0-0.242 0.167-0.179 0.272 0.025 0.049 2.485 1.308 5.467 2.801l5.416 2.708 5.386-2.69c5.243-2.615 5.392-2.696 5.565-2.962 0.44-0.663 0.651-1.63 0.601-2.764-0.049-1.060-0.328-1.977-0.725-2.355l-0.167-0.161-10.672 5.336-0.161-0.267c-0.682-1.165-0.682-3.371-0.007-4.525l0.167-0.298 5.392-2.69c2.962-1.482 5.386-2.733 5.386-2.776 0-0.074-10.653-5.435-10.802-5.429-0.037 0-2.461 1.196-5.379 2.659zM6.648 9.895c0.657 0.353 0.831 0.489 0.949 0.781 0.118 0.285 0.112 0.477-0.031 0.651-0.118 0.149-0.118 0.149 0.007 0.353 0.149 0.242 0.179 0.756 0.056 0.905-0.142 0.167-0.415 0.112-1.091-0.223l-0.651-0.328v-0.23c0-0.174 0.025-0.223 0.086-0.198 0.124 0.049 0.174-1.456 0.056-1.561-0.1-0.081-0.105-0.459-0.012-0.459 0.037 0 0.322 0.137 0.632 0.31zM8.954 11.005c0.347 0.155 0.644 0.471 0.824 0.868 0.124 0.267 0.155 0.44 0.155 0.837 0.007 0.496-0.049 0.688-0.254 0.917-0.149 0.174-0.558 0.142-0.886-0.062-0.36-0.235-0.452-0.347-0.651-0.781-0.13-0.291-0.167-0.459-0.167-0.843-0.007-0.533 0.118-0.837 0.397-0.973 0.198-0.105 0.291-0.1 0.582 0.037zM11.352 12.245c0.558 0.353 0.793 0.837 0.793 1.642 0 0.545-0.112 0.824-0.378 0.967-0.36 0.198-1.153-0.335-1.419-0.942-0.272-0.619-0.179-1.58 0.167-1.779 0.205-0.118 0.539-0.074 0.837 0.112zM13.384 13.441c0 0.161-0.068 0.298-0.13 0.26-0.031-0.019-0.056 0.093-0.056 0.248s0.012 0.285 0.025 0.285c0.019 0 0.13-0.062 0.26-0.137 0.198-0.118 0.211-0.142 0.124-0.205-0.086-0.068-0.149-0.465-0.068-0.465 0.019 0 0.23 0.1 0.465 0.217 0.415 0.211 0.434 0.23 0.434 0.44 0 0.167-0.025 0.217-0.086 0.193-0.074-0.031-0.471 0.161-0.471 0.23 0 0.13 0.514 1.382 0.589 1.438 0.1 0.074 0.124 0.254 0.044 0.378-0.037 0.056-0.186 0.007-0.558-0.186-0.484-0.248-0.508-0.272-0.508-0.471 0-0.155 0.019-0.198 0.093-0.167 0.112 0.044 0.112 0.062-0.007-0.31-0.124-0.365-0.161-0.415-0.291-0.36-0.118 0.044-0.155 0.459-0.044 0.459 0.037 0 0.062 0.112 0.062 0.248v0.248l-0.434-0.217c-0.415-0.211-0.434-0.23-0.434-0.434 0-0.149 0.031-0.217 0.086-0.217 0.124 0 0.174-1.407 0.056-1.556-0.081-0.1-0.112-0.378-0.049-0.44 0.068-0.068 0.898 0.415 0.898 0.521zM26.356 15.089c0.365 0.403 0.044 1.246-0.601 1.593-0.205 0.112-0.223 0.142-0.223 0.415 0 0.217 0.019 0.285 0.081 0.26 0.056-0.019 0.081 0.037 0.074 0.205 0 0.23-0.012 0.242-0.446 0.471l-0.452 0.235v-0.242c0-0.13 0.025-0.26 0.056-0.298 0.031-0.031 0.068-0.428 0.086-0.88 0.031-0.7 0.019-0.824-0.056-0.793-0.068 0.025-0.086-0.025-0.086-0.211 0-0.242 0.007-0.248 0.452-0.471 0.452-0.23 0.824-0.384 0.949-0.391 0.037-0.007 0.112 0.044 0.167 0.105zM24.181 16.1c0.198 0.105 0.298 0.44 0.298 0.979 0 0.793-0.298 1.444-0.812 1.785-0.279 0.186-0.75 0.26-0.898 0.142-0.198-0.167-0.279-0.434-0.279-0.924 0-0.861 0.378-1.568 0.991-1.884 0.365-0.179 0.508-0.205 0.7-0.1zM22.117 17.394c-0.044 0.031-0.081 0.341-0.105 0.898-0.025 0.781-0.019 0.856 0.074 0.818 0.081-0.031 0.1 0 0.1 0.192 0 0.23-0.012 0.235-0.465 0.465l-0.465 0.23v-0.248c0-0.167 0.031-0.267 0.093-0.285 0.105-0.044 0.137-0.582 0.031-0.582-0.031 0-0.155 0.049-0.279 0.105-0.205 0.1-0.217 0.124-0.217 0.403 0 0.235 0.019 0.285 0.093 0.26 0.074-0.031 0.093 0.012 0.093 0.205 0 0.235-0.007 0.242-0.465 0.471l-0.465 0.23v-0.235c0-0.13 0.025-0.26 0.056-0.298 0.031-0.031 0.068-0.421 0.081-0.861 0.012-0.619 0-0.8-0.056-0.793-0.056 0.012-0.081-0.062-0.081-0.23 0-0.242 0.007-0.248 0.434-0.465 0.235-0.118 0.446-0.217 0.465-0.217s0.031 0.112 0.031 0.242c0 0.155-0.031 0.254-0.093 0.279s-0.093 0.124-0.093 0.316c0 0.155 0.012 0.279 0.031 0.279s0.149-0.056 0.279-0.124c0.235-0.118 0.248-0.142 0.248-0.409 0-0.23-0.019-0.279-0.093-0.248-0.074 0.025-0.093-0.019-0.093-0.211 0-0.242 0-0.248 0.452-0.452l0.446-0.205 0.019 0.211c0.012 0.124-0.012 0.235-0.056 0.26zM19.768 18.559v0.484l-0.23 0.112c-0.155 0.074-0.242 0.086-0.254 0.044-0.049-0.142-0.205-0.248-0.31-0.211-0.137 0.049-0.26 0.205-0.26 0.335 0 0.086 0.081 0.105 0.44 0.13 0.372 0.019 0.459 0.049 0.558 0.167 0.254 0.31 0.074 0.936-0.378 1.326-0.298 0.248-0.551 0.335-0.738 0.23-0.112-0.056-0.13-0.044-0.167 0.093-0.037 0.149-0.298 0.341-0.459 0.341-0.037 0-0.062-0.179-0.062-0.452v-0.452l0.272-0.13c0.267-0.13 0.272-0.13 0.304-0.012 0.044 0.155 0.235 0.149 0.44-0.012 0.285-0.223 0.217-0.304-0.267-0.304-0.304 0-0.459-0.031-0.526-0.093-0.36-0.36-0.037-1.296 0.545-1.575 0.316-0.155 0.372-0.161 0.496-0.031 0.093 0.086 0.1 0.081 0.1-0.062 0-0.118 0.056-0.186 0.235-0.279 0.124-0.068 0.235-0.124 0.248-0.13 0.007 0 0.012 0.217 0.012 0.484z"></path>
<path d="M6.704 10.682c0.019 0.248 0.037 0.298 0.155 0.316 0.272 0.037 0.235-0.397-0.049-0.545-0.118-0.068-0.124-0.056-0.105 0.23z"></path>
<path d="M6.642 11.643c0.019 0.291 0.037 0.335 0.186 0.384 0.211 0.074 0.254 0.031 0.248-0.223-0.007-0.142-0.056-0.248-0.179-0.341-0.093-0.081-0.198-0.142-0.223-0.142s-0.044 0.149-0.031 0.322z"></path>
<path d="M8.737 11.693c-0.086 0.155-0.093 0.905-0.012 1.116 0.037 0.086 0.112 0.198 0.167 0.248 0.093 0.081 0.118 0.074 0.223-0.056 0.155-0.186 0.167-0.973 0.025-1.245-0.112-0.217-0.304-0.242-0.403-0.062z"></path>
<path d="M10.955 12.82c-0.037 0.081-0.074 0.335-0.074 0.577 0 0.521 0.137 0.831 0.372 0.837 0.242 0 0.285-1.171 0.062-1.419-0.155-0.167-0.26-0.167-0.36 0.007z"></path>
<path d="M25.631 15.678c-0.081 0.062-0.105 0.149-0.086 0.409l0.019 0.328 0.167-0.13c0.192-0.155 0.279-0.465 0.174-0.595-0.093-0.112-0.13-0.118-0.272-0.012z"></path>
<path d="M23.399 16.824c-0.142 0.167-0.223 0.477-0.223 0.893 0 0.446 0.081 0.67 0.242 0.67 0.192 0 0.335-0.341 0.36-0.868 0.031-0.638-0.137-0.954-0.378-0.694z"></path>
<path d="M21.429 11.11l-5.256 2.628v0.217c0 0.118 0.012 0.217 0.031 0.217 0.037 0 10.455-5.2 10.492-5.237 0.012-0.012 0.012-0.118 0-0.235l-0.019-0.217-5.249 2.628z"></path>
<path d="M21.429 12.164l-5.256 2.628v0.217c0 0.118 0.031 0.217 0.062 0.217 0.037 0 2.405-1.171 5.268-2.603l5.206-2.603v-0.248c0-0.137-0.007-0.248-0.012-0.242-0.012 0-2.38 1.184-5.268 2.634z"></path>
<path d="M21.392 13.261l-5.225 2.615 0.019 0.205c0.012 0.112 0.037 0.198 0.068 0.198 0.025 0 2.386-1.171 5.249-2.603l5.206-2.603v-0.217c0-0.118-0.019-0.217-0.044-0.211-0.031 0-2.399 1.177-5.274 2.615z"></path>
<path d="M21.41 14.314l-5.206 2.615-0.019 0.23c-0.012 0.13-0.007 0.235 0.012 0.235s2.392-1.177 5.274-2.615l5.237-2.622v-0.23c0-0.13-0.019-0.235-0.044-0.23-0.031 0-2.392 1.177-5.256 2.615z"></path>
<path d="M5.576 14.091v0.235l3.762 1.921c2.070 1.054 4.4 2.243 5.181 2.64l1.413 0.725-0.019-0.248c-0.025-0.285 0.198-0.155-2.745-1.654-1.023-0.526-3.13-1.605-4.685-2.399-1.556-0.8-2.845-1.45-2.869-1.45-0.019 0-0.037 0.105-0.037 0.23z"></path>
<path d="M5.576 15.144v0.235l1.351 0.694c2.864 1.468 8.366 4.288 8.677 4.444l0.328 0.167-0.037-0.508-2.479-1.27c-1.363-0.7-3.384-1.735-4.493-2.299s-2.293-1.177-2.64-1.357c-0.347-0.186-0.644-0.335-0.67-0.335-0.019 0-0.037 0.105-0.037 0.23z"></path>
<path d="M5.576 16.205v0.23l1.072 0.539c0.582 0.298 1.791 0.911 2.678 1.37 0.886 0.452 2.448 1.252 3.471 1.773 1.023 0.526 2.145 1.103 2.498 1.289l0.638 0.335-0.037-0.508-0.619-0.328c-1.128-0.595-9.625-4.933-9.662-4.933-0.019 0-0.037 0.105-0.037 0.235z"></path>
<path d="M5.576 17.14v0.242l1.599 0.824c0.874 0.446 2.15 1.103 2.832 1.45 3.899 2.002 5.863 3.006 5.888 3.006 0.019 0 0.031-0.105 0.031-0.235v-0.23l-1.351-0.688c-0.738-0.384-3.018-1.549-5.063-2.597s-3.768-1.927-3.824-1.959c-0.1-0.056-0.112-0.031-0.112 0.186z"></path>
<path d="M15.027 30.093l-0.186 0.044 0.248 0.044c0.316 0.056 1.933 0.044 2.138-0.012 0.142-0.044 0.13-0.049-0.093-0.086-0.31-0.056-1.859-0.044-2.107 0.012z"></path>
</symbol>
<symbol id="icon-x-close" viewBox="0 0 32 32">
<path fill="#fff" d="m8 8 14 14M8 22 22 8" stroke="#000" stroke-width="2" /></symbol>
<symbol id="icon-apple-ibooks" viewBox="0 0 32 32">
<path fill="#000" style="fill: var(--color1, #FFA500)" d="M20.352 1.6c2.88 0 4.352 0 5.888 0.48 1.696 0.608 3.040 1.952 3.648 3.648 0.512 1.568 0.512 3.008 0.512 5.92v8.704c0 2.88 0 4.352-0.48 5.888-0.608 1.696-1.952 3.040-3.648 3.648-1.568 0.512-3.008 0.512-5.92 0.512h-8.704c-2.88 0-4.352 0-5.888-0.48-1.696-0.64-3.040-1.984-3.68-3.68-0.48-1.536-0.48-2.976-0.48-5.888v-8.704c0-2.88 0-4.352 0.48-5.888 0.64-1.696 1.984-3.040 3.68-3.68 1.536-0.48 2.976-0.48 5.888-0.48h8.704z"></path>
<path fill="#fff" style="fill: var(--color2, #fff)" d="M6.4 10.496s0.928-2.4 4.672-2.4c3.712 0 4.704 3.136 4.704 3.136v13.44s-1.184-3.584-4.672-3.584c-2.528 0-4.32 1.632-4.32 1.632-0.192 0.16-0.384 0.064-0.384-0.192v-12.032zM25.6 10.496v12c0 0.256-0.16 0.352-0.384 0.192 0 0-1.792-1.632-4.32-1.632-3.456 0-4.64 3.584-4.64 3.584v-13.44s0.96-3.136 4.704-3.136c3.712 0 4.64 2.432 4.64 2.432z"></path>
</symbol>

</defs>
</svg>
