<!-- Generated by IcoMoon.io -->
<svg version="1.1" xmlns="http://www.w3.org/2000/svg" width="55" height="32" viewBox="0 0 55 32">
<title>Vector2x</title>
<path fill="#4f2ee8" d="M24.724 19.048c0.354 0.357 0.775 0.64 1.24 0.834s0.962 0.293 1.465 0.293c0.503 0 1.001-0.1 1.465-0.293s0.886-0.477 1.24-0.834l17.448-17.486c0.354-0.357 0.776-0.64 1.24-0.834s0.962-0.293 1.465-0.293 1.001 0.1 1.465 0.293c0.464 0.193 0.886 0.477 1.24 0.834 0.709 0.714 1.108 1.679 1.108 2.686s-0.398 1.972-1.108 2.686l-17.486 17.486c-2.143 2.14-5.048 3.342-8.076 3.342s-5.933-1.202-8.076-3.342l-17.486-17.486c-0.704-0.71-1.101-1.667-1.105-2.667-0.003-0.501 0.093-0.998 0.283-1.462s0.469-0.886 0.822-1.242c0.354-0.357 0.775-0.64 1.24-0.834s0.962-0.293 1.465-0.293c0.503 0 1.001 0.1 1.465 0.293s0.886 0.477 1.24 0.834l17.448 17.486z"></path>
</svg>
